<mxfile host="app.diagrams.net" modified="2023-10-06T14:42:22.788Z" agent="Mozilla/5.0 (X11; Linux x86_64) AppleWebKit/537.36 (KHTML, like Gecko) Chrome/113.0.0.0 Safari/537.36" version="22.0.3" etag="yOE-7Hq_FJlzUqcal0Cj" type="github">
  <diagram name="Page-1" id="9FTPrnsEqjEvBxHzcIQT">
    <mxGraphModel>
      <root>
        <mxCell id="0" />
        <mxCell id="1" parent="0" />
      </root>
    </mxGraphModel>
  </diagram>
</mxfile>
